<?xml version="1.0" encoding="UTF-8"?>
<svg id="a"
    xmlns="http://www.w3.org/2000/svg" viewBox="0 0 36.54 36.25">
    <defs>
        <style>.b{fill:#101656;}</style>
    </defs>
    <path class="b" d="M27.28,19.85c-2.61.82-5.3.16-5.3-3.33,0-5.32,12.5-9.78,14.24-14.44.43-1.16.46-2.11-.1-2.08-.4.02-.09.6-.96,1.48-5.18,5.18-13.85,5.17-20.51,8.15C10.28,11.59-2.51,17.61.44,31.04c.14.64.52,2.77.91,2.77.45,0,.45-1.27.44-2.81-.1-8,9.37-10.23,12.45-15.45.37-.63,1.01-1.5,1.16-1.09.07.2.03.49-.1,1.04-.96,4.29-5.45,7.05-4.18,10.12,1.65,3.98,6.41,1.01,7.87-1.55.39-.71.61-1.16.87-1.06.2.07.19.88.07,1.61-.78,4.62-1.84,7.22-5.23,9.84-1.08.84-2.78,1.02-2.56,1.66.06.17.79.15,1.37.09,9-.58,16.53-11.19,18.53-18.13.21-.49.27-.95.05-1.12-.27-.21-.67.27-1.07.63-1.03.9-2.44,1.85-3.74,2.25h0Z"/>
</svg>